<svg xmlns="http://www.w3.org/2000/svg" viewBox="0 0 39.22 39.15"><defs><style>.cls-1{fill:#fff;}.cls-2{fill:#6bc28e;}.cls-3,.cls-4{fill:none;stroke-linecap:round;stroke-linejoin:round;}.cls-3{stroke:#5c9e78;stroke-width:2px;}.cls-4{stroke:#010101;stroke-width:1.5px;}</style></defs><title>Pandora&amp;apos;s Box</title><g id="Layer_2" data-name="Layer 2"><g id="Layer_1-2" data-name="Layer 1"><polygon class="cls-1" points="13.53 10.97 20.09 8 24.16 11.26 20.71 18.58 13.53 10.97"/><polygon class="cls-2" points="38.3 37.9 34.21 37.3 20.86 38.21 11.59 37.08 1.23 37.25 2.21 20.95 1.12 2.25 25.56 0.85 38.14 2.06 38.3 37.9"/><polygon class="cls-1" points="20.71 18.58 13.53 10.97 20.09 8 24.61 11.14 20.71 18.58"/><polyline class="cls-3" points="20.01 18.95 11.78 10.52 18.86 7.39"/><path class="cls-4" d="M38.43,13.79l-.15,24.27-4.07-.76L20.76,38.4,11.86,37s-6.9.91-8.72.72-1.91-.43-1.91-.43.62-13.76.53-17.76S.75,1.92.75,1.92L16,.87S24.38.69,27.08.77s11.35.91,11.35.91L38.28,3.6l.19,6.17L24.16,11.25,20.09,8l-6.56,3,7.18,7.61,2.6-4.82"/><polygon class="cls-1" points="7.31 12.66 5.52 14.57 17.9 34.36 20.59 34.11 32.59 17.38 29.78 16.49 18.22 25.33 7.31 12.66"/><polyline class="cls-3" points="6.25 12.66 4.66 14.96 16.79 34.23"/><polyline class="cls-4" points="18.41 25.04 29.78 16.49 32.59 17.38 20.59 34.11 17.9 34.36 5.52 14.57 7.31 12.66 15.35 22.04"/></g></g></svg>